<?xml version="1.0" standalone="no"?>
<!DOCTYPE svg PUBLIC "-//W3C//DTD SVG 20010904//EN"
 "http://www.w3.org/TR/2001/REC-SVG-20010904/DTD/svg10.dtd">
<svg version="1.0" xmlns="http://www.w3.org/2000/svg"
 width="1680.000000pt" height="1680.000000pt" viewBox="0 0 1680.000000 1680.000000"
 preserveAspectRatio="xMidYMid meet">
<metadata>
Created by potrace 1.11, written by Peter Selinger 2001-2013
</metadata>
<g transform="translate(0.000000,1680.000000) scale(0.100000,-0.100000)"
fill="#000000" stroke="none">
<path d="M12480 12800 c-1 -96 -1 -241 1 -247 1 -5 1 -12 0 -16 -1 -5 -1 -29
-1 -55 0 -26 0 -56 1 -67 0 -25 0 -227 0 -240 0 -5 0 -30 0 -55 0 -25 -1 -56
-1 -70 -1 -14 -2 -49 -3 -78 -1 -28 0 -52 3 -52 3 0 4 -28 2 -62 -2 -72 -4
-301 -1 -314 1 -5 1 -13 0 -19 -1 -5 -2 -62 -1 -125 1 -63 1 -128 0 -143 0
-21 3 -26 12 -21 19 12 37 13 44 3 3 -5 12 -5 23 1 12 6 22 5 28 -1 8 -8 17
-7 32 0 15 8 21 8 21 1 0 -7 6 -7 21 0 14 8 24 8 32 1 8 -6 18 -6 27 -1 9 5
19 5 26 -1 6 -5 20 -6 30 -2 23 9 65 9 88 0 9 -4 26 -2 37 3 11 6 25 7 32 3
16 -10 37 -10 65 -1 12 4 22 3 22 -2 0 -5 12 -5 29 0 15 4 34 4 41 0 6 -4 27
-4 45 0 18 4 40 3 49 -2 10 -5 23 -5 36 2 11 6 26 7 33 3 16 -10 37 -10 65 -1
12 4 22 3 22 -2 0 -5 12 -5 29 0 16 4 32 6 34 3 10 -9 42 -10 60 -1 12 6 23 6
30 -1 8 -6 18 -6 27 -1 9 5 19 5 27 -1 8 -7 18 -7 32 1 15 7 21 7 21 0 0 -7 6
-7 21 0 14 8 24 8 32 1 8 -6 18 -6 27 -1 9 5 19 5 27 -1 8 -7 19 -7 33 1 16 8
25 8 35 0 9 -8 15 -8 20 0 4 7 12 7 26 0 14 -8 19 -7 19 1 0 9 3 9 14 0 10 -8
16 -9 21 -1 4 6 13 7 23 2 9 -5 28 -6 42 -2 14 4 33 3 43 -2 10 -5 25 -4 37 2
11 6 26 7 33 3 16 -10 37 -10 65 -1 12 4 22 4 22 -1 0 -5 15 -5 34 -1 18 4 41
3 50 -2 11 -6 16 -5 16 3 0 9 3 9 14 0 10 -8 16 -9 21 -1 4 7 12 7 26 0 14 -8
19 -7 19 1 0 9 3 9 14 0 10 -8 16 -9 21 -1 4 7 12 7 26 0 13 -8 25 -7 40 0 14
8 24 8 32 1 8 -6 18 -6 27 -1 9 5 19 5 27 -1 8 -7 18 -7 32 1 15 7 21 7 21 0
0 -7 6 -7 21 0 14 8 24 8 32 1 8 -6 18 -6 27 -1 9 5 19 5 26 -1 6 -5 20 -6 30
-2 23 9 65 9 88 0 9 -4 26 -2 37 3 11 6 25 7 32 3 16 -10 37 -10 65 -1 12 4
22 3 22 -2 0 -5 12 -5 29 0 15 4 34 4 41 0 6 -4 27 -4 45 0 18 4 40 3 49 -2
10 -5 23 -5 36 2 11 6 26 7 33 3 16 -10 37 -10 65 -1 12 4 22 3 22 -2 0 -5 12
-5 28 0 16 4 36 4 45 -1 10 -6 18 -5 22 1 5 8 11 8 20 0 9 -8 15 -8 20 0 4 7
12 7 26 0 14 -8 19 -7 19 1 0 9 3 9 14 0 10 -8 16 -9 21 -1 4 6 13 7 23 2 9
-5 28 -6 42 -2 14 4 33 3 43 -2 10 -5 25 -4 37 2 11 6 26 7 33 3 16 -10 37
-10 65 -1 12 4 22 4 22 -1 0 -5 15 -5 34 -1 18 4 41 3 50 -2 11 -6 16 -5 16 3
0 9 3 9 14 0 10 -8 16 -9 21 -1 4 7 12 7 26 0 14 -8 19 -7 19 1 0 9 3 9 14 0
10 -8 16 -9 21 -1 4 7 12 7 26 0 14 -8 19 -7 19 1 0 9 3 9 14 0 10 -8 16 -9
21 -1 4 7 12 7 26 0 14 -8 19 -7 19 1 0 9 3 9 14 0 10 -8 16 -9 21 -1 4 6 13
7 23 2 9 -5 28 -6 42 -2 14 4 33 3 43 -2 10 -5 25 -4 37 2 11 6 26 7 33 3 16
-10 37 -10 65 -1 12 4 22 4 22 -1 0 -5 15 -5 34 -1 18 4 41 3 50 -2 11 -6 16
-5 16 3 0 9 3 9 14 0 10 -8 16 -9 21 -1 4 7 12 7 26 0 14 -8 19 -7 19 1 0 9 3
9 14 0 10 -8 16 -9 21 -1 4 7 12 7 26 0 14 -8 19 -7 19 1 0 9 3 9 14 0 10 -8
16 -9 21 -1 4 7 12 7 26 0 14 -8 19 -7 19 1 0 9 3 9 14 0 10 -8 16 -9 21 -1 4
7 12 7 26 0 19 -11 19 1 19 795 l0 805 -2160 0 -2160 0 0 -40z"/>
<path d="M9738 12759 c-12 -7 -17 -22 -16 -53 0 -24 -2 -48 -5 -53 -3 -5 -2
-15 3 -23 5 -8 5 -22 -1 -32 -7 -12 -6 -18 1 -18 6 0 8 -5 4 -11 -8 -13 -9
-118 -1 -125 2 -3 1 -20 -3 -38 -4 -19 -4 -40 0 -47 5 -7 5 -22 0 -33 -4 -12
-4 -30 0 -41 4 -11 4 -32 0 -46 -4 -15 -4 -32 0 -39 5 -7 5 -22 1 -33 -4 -11
-4 -39 -1 -63 4 -24 4 -44 0 -44 -4 0 -4 -20 0 -44 4 -25 3 -52 -2 -60 -6 -10
-5 -16 2 -16 6 0 8 -5 4 -11 -4 -6 -6 -34 -5 -63 1 -28 1 -67 0 -86 0 -19 0
-42 0 -50 3 -74 2 -151 -3 -158 -2 -4 -1 -14 4 -22 4 -7 5 -23 0 -34 -4 -12
-4 -30 0 -41 4 -11 3 -28 -2 -37 -6 -12 -5 -18 2 -18 7 0 8 -6 2 -17 -5 -10
-6 -29 -2 -43 4 -14 3 -33 -2 -42 -6 -12 -5 -18 2 -18 6 0 8 -5 4 -11 -8 -13
-9 -118 -1 -125 2 -3 1 -20 -3 -38 -4 -19 -4 -40 0 -47 5 -7 5 -22 0 -33 -4
-12 -4 -30 0 -41 4 -11 4 -32 0 -46 -4 -15 -4 -32 0 -39 5 -7 5 -22 1 -33 -4
-11 -4 -39 -1 -63 4 -24 4 -44 0 -44 -4 0 -4 -20 0 -44 4 -25 3 -52 -2 -60 -6
-10 -5 -16 2 -16 6 0 8 -5 4 -11 -4 -6 -6 -34 -5 -63 1 -28 1 -67 0 -86 0 -19
0 -42 0 -50 3 -74 2 -151 -3 -158 -2 -4 -1 -14 4 -22 4 -7 5 -23 0 -34 -4 -12
-4 -30 0 -41 4 -11 3 -28 -2 -37 -6 -12 -5 -18 2 -18 7 0 8 -6 2 -17 -5 -10
-6 -29 -2 -43 4 -14 3 -33 -2 -42 -6 -12 -5 -18 2 -18 6 0 8 -5 4 -11 -8 -13
-9 -118 -1 -125 2 -3 1 -20 -3 -38 -4 -19 -4 -40 0 -47 5 -7 5 -22 0 -33 -4
-12 -4 -30 0 -41 4 -11 4 -32 0 -46 -4 -15 -4 -32 0 -39 5 -7 5 -22 1 -33 -4
-11 -4 -39 -1 -63 4 -24 4 -44 0 -44 -4 0 -4 -20 0 -44 4 -25 3 -52 -2 -60 -6
-10 -5 -16 2 -16 6 0 8 -5 4 -11 -4 -6 -6 -34 -5 -63 1 -28 1 -67 0 -86 0 -19
0 -42 0 -50 3 -74 2 -151 -3 -158 -2 -4 -1 -14 4 -22 4 -7 5 -23 0 -34 -4 -12
-4 -30 0 -41 4 -11 3 -28 -2 -37 -6 -12 -5 -18 2 -18 7 0 8 -6 2 -17 -5 -10
-6 -29 -2 -43 4 -14 3 -33 -2 -42 -6 -12 -5 -18 2 -18 6 0 8 -5 4 -11 -8 -13
-9 -118 -1 -125 2 -3 1 -20 -3 -38 -4 -19 -4 -40 0 -47 5 -7 5 -22 0 -33 -4
-12 -4 -30 0 -41 4 -11 4 -32 0 -46 -4 -15 -4 -32 0 -39 5 -7 5 -22 1 -33 -4
-11 -4 -39 -1 -63 4 -24 4 -44 0 -44 -4 0 -4 -20 0 -44 4 -25 3 -52 -2 -60 -6
-10 -5 -16 2 -16 6 0 8 -5 4 -11 -4 -6 -6 -34 -5 -63 1 -28 1 -67 0 -86 0 -19
0 -42 0 -50 3 -74 2 -151 -3 -158 -2 -4 -1 -14 4 -22 4 -7 5 -23 0 -34 -4 -12
-4 -30 0 -41 4 -11 3 -28 -2 -37 -6 -12 -5 -18 2 -18 7 0 8 -6 2 -17 -5 -10
-6 -29 -2 -43 4 -14 3 -33 -2 -42 -6 -12 -5 -18 2 -18 6 0 8 -5 4 -11 -8 -13
-9 -118 -1 -125 2 -3 1 -20 -3 -38 -4 -19 -4 -40 0 -47 5 -7 5 -22 0 -33 -4
-12 -4 -30 0 -41 4 -11 4 -32 0 -46 -4 -15 -4 -32 0 -39 5 -7 5 -22 1 -33 -4
-11 -4 -39 -1 -63 4 -24 4 -44 0 -44 -4 0 -4 -20 0 -44 4 -25 3 -52 -2 -60 -6
-10 -5 -16 2 -16 6 0 8 -5 4 -11 -4 -6 -6 -34 -5 -63 1 -28 1 -67 0 -86 0 -19
0 -41 0 -47 1 -7 1 -19 2 -25 0 -7 0 -29 0 -48 -1 -19 0 -46 2 -60 2 -14 0
-37 -4 -51 -4 -15 -3 -32 1 -40 5 -7 4 -21 -1 -31 -7 -12 -6 -18 1 -18 6 0 8
-5 4 -11 -8 -13 -9 -118 -1 -125 2 -3 1 -20 -3 -38 -4 -19 -4 -40 0 -47 5 -7
5 -21 1 -32 -4 -11 -4 -39 -1 -63 4 -24 4 -44 0 -44 -4 0 -4 -20 0 -44 4 -25
3 -52 -2 -60 -6 -10 -5 -16 2 -16 6 0 8 -5 4 -11 -8 -13 -9 -118 -1 -125 2 -3
1 -20 -3 -38 -4 -19 -4 -40 0 -47 5 -7 5 -21 1 -32 -4 -11 -4 -39 -1 -63 4
-24 4 -44 0 -44 -4 0 -4 -20 0 -44 4 -25 3 -52 -2 -60 -6 -10 -5 -16 2 -16 7
0 8 -6 2 -16 -5 -8 -6 -36 -2 -60 4 -25 3 -47 -1 -49 -4 -3 -4 -18 0 -33 4
-15 5 -38 1 -52 -4 -14 -3 -35 1 -47 5 -12 4 -25 -1 -28 -5 -3 -5 -18 -1 -33
4 -15 5 -38 1 -52 -4 -14 -3 -35 1 -47 5 -12 4 -25 -1 -28 -5 -3 -5 -18 -1
-33 4 -15 5 -38 1 -52 -4 -14 -3 -35 1 -47 5 -12 4 -25 -1 -28 -5 -3 -5 -18 0
-34 4 -16 6 -32 3 -35 -5 -5 -5 -103 0 -146 2 -14 0 -37 -4 -51 -4 -15 -3 -32
1 -40 5 -7 4 -21 -1 -31 -7 -12 -6 -18 1 -18 6 0 8 -5 4 -11 -8 -13 -9 -118
-1 -125 3 -3 1 -19 -3 -35 -5 -18 -5 -29 1 -29 6 0 8 -4 5 -9 -8 -12 60 -19
79 -8 9 5 15 4 15 -2 0 -6 11 -7 28 -2 15 5 36 5 47 1 11 -4 27 -4 36 1 9 5
19 6 22 3 8 -9 69 -10 98 -3 15 4 32 3 40 -1 7 -5 21 -4 31 1 11 6 18 6 18 0
0 -5 14 -6 34 -1 19 4 40 4 47 -1 7 -4 20 -4 30 1 9 5 19 7 22 4 8 -9 69 -10
98 -3 15 4 32 3 40 -1 7 -5 21 -4 31 1 11 6 18 6 18 0 0 -5 14 -6 34 -1 19 4
40 4 47 -1 7 -4 20 -4 30 1 9 5 19 7 22 4 8 -9 69 -10 98 -3 15 4 32 3 40 -1
7 -5 21 -4 31 1 11 6 18 6 18 0 0 -5 14 -6 34 -1 19 4 40 4 47 -1 7 -4 20 -4
30 1 9 5 19 7 22 4 8 -9 69 -10 98 -3 15 4 32 3 40 -1 7 -5 21 -4 31 1 11 6
18 6 18 0 0 -5 14 -6 34 -1 18 4 40 3 49 -1 9 -6 18 -5 21 0 3 4 24 5 46 1 22
-4 43 -3 46 1 3 5 10 7 15 3 6 -3 9 26 8 76 -1 44 1 83 4 86 3 3 2 18 -2 32
-4 15 -4 39 0 54 4 16 3 28 -1 28 -5 0 -5 12 -1 28 4 15 5 38 1 52 -3 14 -4
35 -1 48 3 12 4 81 1 152 -3 71 -2 145 1 164 3 19 2 40 -1 47 -4 6 -5 22 -1
35 3 13 4 99 1 193 -3 93 -2 185 1 205 3 19 2 40 -1 47 -4 6 -5 22 -1 35 3 13
4 64 1 113 -3 49 -2 105 1 125 3 19 2 40 -1 47 -4 6 -5 22 -1 35 3 13 4 64 1
113 -3 49 -2 105 1 125 3 19 2 40 -1 47 -4 6 -5 22 -1 35 3 13 4 64 1 113 -3
49 -2 105 1 125 3 19 2 40 -2 47 -4 6 -4 23 0 38 4 14 4 46 1 71 -3 25 -3 56
1 70 3 14 3 36 -1 50 -4 14 -3 37 1 53 4 15 4 27 -1 27 -5 0 -5 12 -1 28 4 15
5 38 1 52 -3 14 -4 35 -1 48 3 12 4 81 1 152 -3 71 -2 145 1 164 3 19 2 40 -1
47 -4 6 -5 22 -1 35 3 13 4 82 1 153 -3 72 -2 141 1 153 3 13 3 34 -1 48 -4
14 -3 37 1 53 4 15 3 27 -1 27 -5 0 -5 12 -1 28 4 15 5 38 1 52 -4 14 -3 37 1
53 4 15 4 27 -1 27 -5 0 -5 12 -1 28 4 15 5 38 1 52 -4 14 -3 37 1 53 4 15 4
27 -1 27 -5 0 -5 12 -1 28 4 15 5 38 1 52 -3 14 -4 35 -1 48 3 12 4 81 1 152
-3 71 -2 145 1 164 3 19 2 40 -1 47 -4 6 -5 22 -1 35 3 13 4 82 1 153 -3 72
-2 141 1 153 3 13 3 34 -1 48 -4 14 -3 37 1 53 4 15 3 27 -1 27 -5 0 -5 12 -1
28 4 15 5 38 1 52 -4 14 -3 37 1 53 4 15 4 27 -1 27 -5 0 -5 12 -1 28 4 15 5
38 1 52 -4 14 -3 37 1 53 4 15 4 27 -1 27 -5 0 -5 12 -1 28 4 15 5 38 1 52 -3
14 -4 35 -1 48 3 12 4 81 1 152 -3 71 -2 145 1 164 3 19 2 40 -1 47 -4 6 -5
22 -1 35 3 13 4 82 1 153 -3 72 -2 141 1 153 3 13 3 34 -1 48 -4 14 -3 37 1
53 4 15 3 27 -1 27 -5 0 -5 12 -1 28 4 15 5 38 1 52 -4 14 -3 37 1 53 4 15 4
27 -1 27 -5 0 -5 12 -1 28 4 15 5 38 1 52 -4 14 -3 37 1 53 4 15 4 27 -1 27
-5 0 -5 12 -1 28 4 15 5 38 1 52 -3 14 -4 35 -1 48 3 12 4 81 1 152 -3 71 -2
145 1 164 3 19 2 40 -1 47 -4 6 -5 22 -1 35 3 13 4 82 1 153 -3 72 -2 141 1
153 3 13 3 34 -1 48 -4 14 -3 37 1 53 4 15 3 27 -1 27 -5 0 -5 12 -1 28 4 15
5 38 1 52 -4 14 -3 37 1 53 4 15 4 27 -1 27 -5 0 -5 12 -1 28 4 15 5 38 1 52
-4 14 -3 37 1 53 4 15 4 27 -1 27 -5 0 -5 12 -1 28 4 15 5 38 1 52 -3 14 -4
35 -1 48 3 12 4 81 1 152 -3 71 -2 145 1 164 3 19 2 40 -1 47 -4 6 -5 22 -1
35 3 13 4 82 1 153 -3 72 -2 141 1 153 3 13 3 36 -1 53 -6 33 -38 46 -80 35
-14 -4 -34 -4 -45 0 -11 4 -30 4 -42 -1 -14 -5 -23 -4 -27 4 -3 9 -5 8 -5 -1
-1 -7 -5 -11 -9 -8 -5 3 -44 5 -88 5 -94 1 -112 1 -139 5 -11 1 -32 -1 -47 -5
-15 -4 -30 -4 -33 1 -3 4 -20 4 -39 0 -19 -4 -39 -4 -46 0 -7 4 -24 4 -39 1
-14 -4 -40 -4 -57 -1 -18 4 -37 4 -43 0 -7 -4 -32 -4 -56 0 -24 4 -50 3 -56
-1 -7 -4 -23 -3 -35 1 -13 5 -25 6 -28 1 -3 -4 -27 -5 -53 -1 -27 3 -62 3 -80
-1 -17 -3 -37 -3 -44 2 -7 4 -23 3 -35 -1 -15 -6 -24 -5 -28 3 -3 9 -5 8 -5
-1 -1 -7 -5 -11 -9 -8 -5 3 -44 5 -88 5 -94 1 -112 1 -139 5 -11 1 -32 -1 -46
-5 -15 -4 -32 -3 -39 1 -7 4 -25 4 -40 0 -16 -4 -32 -4 -36 0 -5 5 -17 4 -26
-1z"/>
<path d="M5 12722 c-3 -3 -5 -365 -5 -805 l0 -799 25 4 c14 3 28 1 31 -3 3 -5
13 -5 23 0 9 5 22 6 28 3 14 -9 82 -7 90 2 4 3 12 1 19 -5 8 -7 14 -7 19 1 4
7 12 7 25 0 13 -7 21 -7 25 0 4 7 13 7 26 0 13 -8 19 -7 19 0 0 6 5 8 11 4 14
-8 165 -7 179 1 5 3 11 1 15 -5 4 -6 12 -7 24 -1 9 5 23 6 29 2 7 -4 33 -5 58
-1 24 4 47 3 50 -2 3 -4 13 -4 23 1 9 5 22 6 28 3 14 -9 82 -7 90 2 4 3 12 1
19 -5 8 -7 14 -7 19 1 4 7 12 7 25 0 13 -7 21 -7 25 0 4 7 13 7 26 0 13 -8 19
-7 19 0 0 6 5 8 11 4 14 -8 165 -7 179 1 5 3 11 1 15 -5 4 -6 12 -7 24 -1 9 5
23 6 29 2 7 -4 33 -5 58 -1 24 4 47 3 50 -2 3 -4 13 -4 23 2 10 5 21 7 24 4 9
-9 77 -10 90 -2 6 4 17 2 23 -3 8 -7 14 -6 19 1 4 7 12 7 25 0 13 -7 21 -7 25
0 4 7 13 7 26 0 13 -8 19 -7 19 0 0 6 5 8 11 4 14 -8 165 -7 179 1 5 3 11 1
15 -5 4 -6 12 -7 24 -1 9 5 23 6 29 2 7 -4 33 -5 58 -1 24 4 47 3 50 -2 3 -4
13 -4 23 1 9 5 22 6 28 3 14 -9 82 -7 90 2 4 3 12 1 19 -5 8 -7 14 -7 19 1 4
7 12 7 25 0 13 -7 21 -7 25 0 4 7 13 7 26 0 13 -8 19 -7 19 0 0 6 5 8 11 4 14
-8 165 -7 179 1 5 3 11 1 15 -5 4 -6 12 -7 24 -1 9 5 23 6 29 2 7 -4 33 -5 58
-1 24 4 47 3 50 -2 3 -4 13 -4 23 1 9 5 22 6 28 3 14 -9 82 -7 90 2 4 3 12 1
19 -5 8 -7 14 -7 19 1 4 7 12 7 25 0 13 -7 21 -7 25 0 4 7 13 7 26 0 13 -8 19
-7 19 0 0 6 5 8 11 4 14 -8 165 -7 179 1 5 3 11 1 15 -5 4 -6 12 -7 24 -1 9 5
23 6 29 2 7 -4 33 -5 58 -1 24 4 47 3 50 -2 3 -4 13 -4 23 1 9 5 22 6 28 3 14
-9 82 -7 90 2 4 3 12 1 19 -5 8 -7 14 -7 19 1 4 7 12 7 25 0 13 -7 21 -7 25 0
4 7 13 7 26 0 13 -8 19 -7 19 0 0 6 5 8 11 4 14 -8 165 -7 179 1 5 3 11 1 15
-5 4 -6 12 -7 24 -1 9 5 23 6 29 2 7 -4 33 -5 58 -1 24 4 47 3 50 -2 3 -4 13
-4 23 1 9 5 22 6 28 3 14 -9 82 -7 90 2 4 3 12 1 19 -5 8 -7 14 -7 19 1 4 7
12 7 25 0 13 -7 21 -7 25 0 4 7 13 7 26 0 13 -8 19 -7 19 0 0 6 5 8 11 4 14
-8 165 -7 179 1 5 3 11 1 15 -5 4 -6 12 -7 24 -1 9 5 23 6 29 2 7 -4 33 -5 58
-1 24 4 47 3 50 -2 3 -4 13 -4 23 1 9 5 22 6 28 3 14 -9 82 -7 90 2 4 3 12 1
19 -5 8 -7 14 -7 19 1 4 7 12 7 25 0 13 -7 21 -7 25 0 4 7 13 7 26 0 13 -8 19
-7 19 0 0 6 5 8 11 4 14 -8 165 -7 179 1 5 3 11 1 15 -5 4 -6 12 -7 24 -1 9 5
23 6 30 2 7 -5 30 -5 52 -1 22 4 42 4 45 -1 2 -4 16 -4 29 1 13 5 27 6 29 1 3
-4 26 -5 51 -1 25 4 48 3 51 -1 2 -5 16 -4 29 1 13 5 27 6 29 1 3 -4 26 -5 51
-1 25 4 48 3 51 -1 2 -5 16 -4 29 1 13 5 27 6 29 1 3 -4 26 -5 51 -1 25 4 48
3 51 -1 2 -5 15 -4 28 1 13 5 27 6 30 3 8 -8 85 -7 93 1 3 3 12 1 19 -5 8 -7
14 -7 19 1 4 7 12 7 25 0 13 -7 21 -7 25 0 4 7 13 7 26 0 13 -8 19 -7 19 0 0
6 5 8 11 4 14 -8 165 -7 179 1 5 3 11 1 15 -5 4 -6 12 -7 24 -1 9 5 22 6 28 3
14 -9 82 -7 90 2 4 3 12 1 19 -5 8 -7 14 -7 19 1 4 7 12 7 25 0 13 -7 21 -7
25 0 4 7 13 7 26 0 13 -8 19 -7 19 0 0 6 5 8 11 4 14 -8 165 -7 179 1 5 3 11
1 15 -5 4 -6 12 -7 24 -1 9 5 22 6 28 3 14 -9 82 -7 90 2 4 3 12 1 19 -5 8 -7
14 -7 19 1 4 7 12 7 25 0 12 -6 21 -7 25 0 3 5 15 6 29 0 12 -4 29 -4 36 0 8
5 21 5 30 0 9 -5 23 -4 33 1 12 7 17 6 17 -1 0 -6 4 -8 10 -5 15 9 81 12 86 4
3 -5 16 -4 29 1 13 5 27 6 29 1 3 -4 26 -5 51 -1 25 4 48 3 51 -1 2 -5 16 -4
29 1 13 5 27 6 29 1 3 -4 26 -5 51 -1 25 4 48 3 51 -1 2 -5 16 -4 29 1 13 5
27 6 29 1 3 -4 26 -5 51 -1 24 4 47 5 50 2 7 -7 75 -8 75 -1 0 3 10 4 23 2 21
-4 22 -2 21 81 -1 47 -4 92 -7 101 -4 8 -2 15 3 15 5 0 5 13 0 30 -5 18 -5 32
1 35 5 4 5 14 -1 25 -7 13 -7 21 0 25 7 4 7 13 0 26 -6 10 -7 19 -3 19 9 0 9
52 0 66 -3 6 -2 16 3 24 5 8 5 21 -1 31 -6 11 -5 20 1 24 6 4 7 12 1 22 -4 9
-5 31 -1 49 5 20 4 34 -1 34 -6 0 -5 8 1 19 7 14 7 22 0 26 -6 4 -8 11 -4 16
9 15 11 79 2 79 -4 0 -3 11 2 25 6 15 6 26 0 30 -7 4 -6 13 0 25 7 13 7 21 0
25 -7 5 -8 11 -1 19 6 7 6 17 1 26 -5 8 -6 19 -3 24 9 13 7 192 -2 205 -3 6
-1 11 5 11 8 0 8 6 0 20 -6 11 -7 20 -3 20 4 0 8 25 8 55 0 30 -3 55 -7 55 -4
0 -3 11 2 25 5 14 6 25 2 25 -4 0 -6 15 -5 32 1 18 2 33 3 33 1 0 3 12 4 28 1
15 -2 27 -6 27 -4 0 -3 11 2 25 6 16 6 25 0 25 -6 0 -6 9 0 25 6 15 6 27 0 30
-5 3 -6 13 -3 22 5 13 0 15 -30 11 -21 -2 -37 0 -37 5 0 4 -7 4 -17 -1 -9 -5
-28 -6 -42 -2 -14 4 -35 5 -46 3 -24 -4 -65 -5 -157 -2 -36 0 -71 -2 -76 -5
-6 -4 -13 -3 -16 2 -2 4 -32 5 -66 2 -34 -3 -64 -2 -67 3 -2 4 -10 4 -16 -1
-7 -5 -23 -6 -37 -2 -14 3 -44 3 -67 0 -24 -4 -43 -4 -43 -1 0 3 -38 4 -85 1
-46 -3 -98 -2 -114 1 -16 3 -35 3 -42 -1 -6 -4 -25 -4 -40 0 -16 5 -31 5 -34
0 -3 -5 -18 -5 -33 -2 -15 4 -38 6 -52 5 -39 -3 -99 -4 -172 -2 -36 0 -71 -2
-76 -5 -6 -4 -13 -3 -16 2 -2 4 -32 5 -66 2 -34 -3 -64 -2 -67 3 -2 4 -10 4
-16 -1 -7 -5 -23 -6 -37 -2 -14 3 -44 3 -67 0 -24 -4 -43 -4 -43 -1 0 3 -38 4
-85 1 -46 -3 -98 -2 -114 1 -16 3 -35 3 -42 -1 -6 -4 -25 -4 -40 0 -16 5 -31
5 -34 0 -3 -5 -18 -5 -33 -1 -26 6 -48 6 -117 -2 -16 -2 -42 0 -57 4 -15 4
-30 4 -33 -1 -3 -4 -20 -5 -37 -1 -18 4 -45 6 -60 4 -16 -2 -40 -4 -55 -6 -16
-2 -40 0 -55 4 -15 4 -30 4 -33 -1 -3 -4 -17 -5 -31 -1 -15 4 -51 4 -80 1 -30
-3 -54 -4 -54 -1 0 4 -38 4 -85 1 -46 -3 -98 -2 -114 1 -16 3 -35 3 -42 -1 -6
-4 -25 -4 -40 0 -16 5 -31 5 -34 0 -3 -5 -18 -5 -33 -2 -15 4 -38 6 -52 5 -39
-3 -99 -4 -172 -2 -36 0 -71 -2 -76 -5 -6 -4 -13 -3 -16 2 -2 4 -32 5 -66 2
-34 -3 -64 -2 -67 3 -2 4 -10 4 -16 -1 -7 -5 -23 -6 -37 -2 -14 3 -44 3 -67 0
-24 -4 -43 -4 -43 -1 0 3 -36 4 -80 1 -45 -3 -88 -3 -96 0 -8 3 -44 3 -79 0
-36 -3 -65 -3 -65 0 0 3 -38 3 -85 0 -46 -3 -98 -2 -114 1 -16 3 -35 3 -42 -1
-6 -4 -25 -4 -40 0 -16 5 -31 5 -34 0 -3 -5 -18 -5 -33 -2 -15 4 -38 6 -52 5
-39 -3 -99 -4 -172 -2 -36 0 -71 -2 -76 -5 -6 -4 -13 -3 -16 2 -2 4 -32 5 -66
2 -34 -3 -64 -2 -67 3 -2 4 -10 4 -16 -1 -7 -5 -23 -6 -37 -2 -14 3 -44 3 -67
0 -24 -4 -43 -4 -43 -1 0 3 -38 4 -84 1 -46 -3 -96 -3 -112 0 -16 3 -50 3 -76
0 -27 -4 -48 -4 -48 -1 0 3 -38 4 -85 1 -46 -3 -98 -2 -114 1 -16 3 -35 3 -42
-1 -6 -4 -25 -4 -40 0 -16 5 -31 5 -34 0 -3 -5 -18 -5 -33 -2 -15 4 -38 6 -52
5 -39 -3 -99 -4 -172 -2 -36 0 -71 -2 -76 -5 -6 -4 -13 -3 -16 2 -2 4 -32 5
-66 2 -34 -3 -64 -2 -67 3 -2 4 -10 4 -16 -1 -7 -5 -23 -6 -37 -2 -14 3 -44 3
-67 0 -24 -4 -43 -4 -43 -1 0 3 -36 4 -80 1 -45 -3 -88 -3 -96 0 -8 3 -44 3
-79 0 -36 -3 -65 -3 -65 0 0 3 -38 3 -85 0 -46 -3 -98 -2 -114 1 -16 3 -35 3
-42 -1 -6 -4 -25 -4 -40 0 -16 5 -31 5 -34 0 -3 -5 -18 -5 -33 -2 -15 4 -38 6
-52 5 -39 -3 -99 -4 -172 -2 -36 0 -71 -2 -76 -5 -6 -4 -13 -3 -16 2 -2 4 -32
5 -66 2 -34 -3 -64 -2 -67 3 -2 4 -10 4 -16 -1 -7 -5 -23 -6 -37 -2 -14 3 -44
3 -67 0 -24 -4 -43 -4 -43 -1 0 3 -38 4 -85 1 -46 -3 -98 -2 -114 1 -17 4 -33
4 -36 1z"/>
<path d="M12517 9198 c-5 -3 -16 -4 -23 -1 -11 4 -17 -57 -15 -152 0 -9 0 -89
0 -127 0 -10 1 -33 1 -50 0 -18 -1 -59 -2 -91 -2 -31 -1 -57 2 -57 3 0 4 -28
3 -62 -7 -181 -7 -268 0 -268 5 0 6 -4 3 -8 -4 -7 -7 -71 -6 -122 1 -8 0 -88
-1 -178 -1 -90 0 -165 2 -167 2 -2 2 -38 -1 -79 -3 -42 -2 -76 1 -76 3 0 3
-22 -1 -50 -4 -27 -4 -50 0 -50 4 0 4 -14 2 -32 -4 -26 -2 -30 12 -25 9 4 16
3 16 -1 0 -6 107 -7 135 -2 6 1 13 2 18 0 9 -2 94 -2 105 0 4 1 23 1 42 1 33
-1 42 -1 73 -1 6 0 35 0 62 0 28 -1 53 -1 58 0 21 4 88 2 93 -3 4 -4 14 -2 24
3 10 5 20 7 23 3 6 -5 83 -7 105 -3 4 1 25 1 47 1 22 -1 46 -1 53 -1 6 0 20 0
30 0 9 0 33 0 52 1 19 1 41 1 48 0 6 -1 19 -1 27 -1 8 0 23 0 33 0 9 0 33 0
52 1 19 1 41 1 48 0 6 -1 19 -1 27 -1 8 0 23 0 33 0 9 0 31 0 47 1 17 1 36 1
43 0 12 -1 31 -1 55 -1 6 0 35 0 62 0 28 -1 53 -1 58 0 21 4 88 2 93 -3 4 -4
14 -2 24 3 10 5 20 7 23 3 6 -5 83 -7 105 -3 4 1 25 1 47 1 22 -1 46 -1 53 -1
6 0 20 0 30 0 9 0 33 0 52 1 19 1 41 1 48 0 6 -1 19 -1 27 -1 8 0 23 0 33 0 9
0 33 0 52 1 19 1 41 1 48 0 6 -1 19 -1 27 -1 8 0 23 0 33 0 9 0 31 0 47 1 17
1 36 1 43 0 12 -1 31 -1 55 -1 6 0 35 0 62 0 28 -1 53 -1 58 0 21 4 88 2 93
-3 4 -4 14 -2 24 3 10 5 20 7 23 3 6 -5 83 -7 105 -3 4 1 25 1 47 1 22 -1 46
-1 53 -1 6 0 18 0 25 0 6 0 32 0 57 -1 25 0 48 0 53 1 9 2 86 2 90 0 9 -6 49
-5 53 1 2 5 15 4 28 -1 12 -4 29 -4 36 0 8 5 18 6 24 3 8 -5 77 -7 91 -3 15 5
86 2 91 -3 4 -4 14 -2 24 3 10 5 20 7 23 3 8 -7 95 -8 103 -1 3 3 20 2 39 -2
19 -4 36 -5 39 -2 5 4 82 6 89 2 9 -6 49 -5 53 1 2 5 15 4 28 -1 12 -4 29 -4
36 0 8 5 18 6 24 3 8 -5 77 -7 91 -3 15 5 86 2 91 -3 4 -4 14 -2 24 3 10 5 20
7 23 3 6 -5 83 -7 105 -3 4 1 25 1 47 1 46 -2 60 -2 78 0 6 1 17 0 22 -1 6 -1
18 -2 28 -1 16 1 17 46 17 800 0 782 0 799 -19 804 -11 3 -22 2 -25 -1 -8 -7
-85 -7 -92 1 -4 4 -14 2 -24 -3 -10 -5 -20 -7 -23 -3 -6 5 -87 7 -102 3 -15
-5 -86 -2 -91 3 -4 4 -14 2 -24 -3 -10 -5 -20 -7 -23 -3 -5 5 -80 7 -99 3 -22
-4 -89 -2 -94 3 -4 4 -14 2 -24 -3 -10 -5 -20 -7 -23 -3 -6 5 -87 7 -102 3
-15 -5 -86 -2 -91 3 -4 4 -14 2 -24 -3 -10 -5 -20 -7 -23 -3 -5 5 -80 7 -99 3
-22 -4 -89 -2 -94 3 -4 4 -14 2 -24 -3 -10 -5 -20 -7 -23 -3 -6 5 -87 7 -102
3 -15 -5 -86 -2 -91 3 -4 4 -14 2 -23 -3 -10 -5 -23 -5 -30 -1 -7 5 -30 5 -51
1 -21 -4 -44 -4 -51 1 -7 4 -20 4 -29 -1 -9 -5 -22 -5 -29 -1 -7 5 -30 5 -51
1 -21 -4 -44 -4 -51 1 -7 4 -20 4 -29 -1 -9 -5 -22 -5 -29 -1 -7 5 -30 5 -51
1 -21 -4 -44 -4 -51 1 -7 4 -20 4 -29 -1 -9 -5 -22 -5 -29 -1 -7 5 -30 5 -51
1 -21 -4 -44 -4 -51 1 -7 4 -20 4 -29 -1 -9 -5 -22 -5 -29 -1 -7 5 -30 5 -51
1 -21 -4 -44 -4 -51 1 -7 4 -20 4 -29 -1 -9 -5 -22 -5 -29 -1 -7 5 -30 5 -51
1 -21 -4 -44 -4 -51 1 -7 4 -20 4 -29 -1 -9 -5 -22 -5 -29 -1 -7 5 -30 5 -51
1 -21 -4 -44 -4 -51 1 -7 4 -20 4 -29 -1 -9 -5 -22 -5 -29 -1 -7 5 -30 5 -51
1 -21 -4 -44 -4 -51 1 -7 4 -20 4 -29 -1 -9 -5 -22 -5 -29 -1 -7 5 -30 5 -51
1 -21 -4 -44 -4 -51 1 -7 4 -20 4 -29 -1 -9 -5 -22 -5 -29 -1 -7 5 -30 5 -51
1 -21 -4 -44 -4 -51 1 -7 4 -20 4 -29 -1 -9 -5 -22 -5 -29 -1 -7 5 -30 5 -51
1 -21 -4 -44 -4 -51 1 -7 4 -20 4 -29 -1 -9 -5 -22 -5 -29 -1 -7 5 -30 5 -51
1 -21 -4 -44 -4 -51 1 -7 4 -20 4 -29 -1 -9 -5 -22 -5 -29 -1 -7 5 -30 5 -51
1 -21 -4 -44 -4 -51 1 -7 4 -20 4 -29 -1 -9 -5 -22 -5 -29 -1 -7 5 -30 5 -51
1 -21 -4 -44 -4 -51 1 -7 4 -20 4 -29 -1 -9 -5 -22 -5 -29 -1 -7 5 -30 5 -51
1 -21 -4 -44 -4 -51 1 -7 4 -20 4 -29 -1 -9 -5 -22 -5 -29 -1 -7 5 -30 5 -51
1 -21 -4 -44 -4 -51 1 -7 4 -20 4 -30 -1 -9 -5 -19 -7 -22 -3 -5 5 -80 7 -99
3 -22 -4 -89 -2 -94 3 -4 4 -14 2 -24 -3 -10 -5 -20 -7 -23 -3 -9 8 -87 9
-100 1z"/>
<path d="M13 9163 c-10 -4 -13 -173 -13 -803 l0 -798 56 -4 c31 -1 58 0 61 5
2 4 9 5 14 2 7 -5 275 -9 304 -4 6 1 14 1 19 0 11 -2 287 -2 301 0 6 1 14 1
19 0 23 -5 299 -2 303 3 3 2 15 1 28 -4 13 -5 25 -7 27 -5 4 4 118 6 313 5 55
-1 105 0 110 1 6 1 15 0 20 -1 6 -1 53 -1 105 0 52 0 102 1 110 1 8 0 119 0
245 0 127 1 235 1 240 1 41 -2 232 -3 240 -1 6 1 15 0 20 -1 6 -1 53 -1 105 0
52 0 102 1 110 1 8 0 119 0 245 0 127 1 235 1 240 1 41 -2 232 -3 240 -1 6 1
15 0 20 -1 8 -1 78 -1 210 1 6 0 62 0 125 -1 63 -1 120 0 125 1 6 1 14 1 19 0
11 -2 287 -2 301 0 6 1 14 1 19 0 11 -2 287 -2 301 0 6 1 14 1 19 0 23 -5 299
-2 303 3 3 2 15 1 28 -4 13 -5 25 -7 27 -5 4 4 118 6 313 5 55 -1 105 0 110 1
6 1 15 0 20 -1 6 -1 53 -1 105 0 52 0 102 1 110 1 8 0 119 0 245 0 127 1 235
1 240 1 41 -2 232 -3 240 -1 6 1 15 0 20 -1 6 -1 53 -1 105 0 52 0 102 1 110
1 8 0 119 0 245 0 127 1 235 1 240 1 41 -2 232 -3 240 -1 6 1 14 1 19 0 22 -5
218 -2 222 2 3 3 19 2 37 -2 44 -10 78 0 88 27 5 14 5 22 -2 22 -6 0 -7 4 -4
10 9 15 12 90 3 90 -4 0 -3 11 2 25 6 15 6 26 0 30 -7 4 -6 13 0 25 7 13 7 21
0 25 -7 5 -8 11 -1 19 6 7 6 17 1 26 -5 8 -6 18 -3 23 9 15 9 166 1 160 -5 -2
-4 7 2 21 6 18 6 26 -1 26 -6 0 -7 4 -4 10 9 15 12 90 3 90 -4 0 -3 11 2 25 6
15 6 26 0 30 -7 4 -6 13 0 25 7 13 7 21 0 25 -7 5 -8 11 -1 19 6 7 6 17 1 26
-5 8 -6 18 -3 23 9 15 9 166 1 160 -5 -2 -4 7 2 21 6 18 6 26 -1 26 -6 0 -7 4
-4 10 9 15 12 90 3 90 -4 0 -3 11 2 25 6 15 6 26 0 30 -7 4 -6 13 0 25 7 13 7
21 0 25 -6 4 -8 10 -5 16 9 13 10 93 2 106 -4 6 -3 14 3 18 7 4 7 12 0 25 -7
13 -7 21 0 25 7 4 7 12 0 25 -7 13 -7 21 0 25 7 4 7 13 0 24 -6 12 -5 22 1 28
8 8 7 13 0 17 -8 5 -8 13 -1 26 16 29 -21 63 -57 53 -15 -3 -33 -6 -40 -5 -7
1 -24 2 -38 2 -14 0 -33 0 -42 0 -10 0 -31 0 -48 -1 -16 0 -39 0 -50 1 -11 1
-26 1 -32 1 -7 -1 -21 -1 -30 -1 -10 0 -29 0 -43 -1 -14 0 -32 0 -40 0 -8 1
-26 1 -40 0 -14 0 -31 0 -37 0 -23 2 -38 2 -103 2 -36 -1 -72 -1 -80 0 -8 0
-28 0 -45 0 -16 -1 -38 -1 -47 -1 -10 0 -29 0 -43 0 -14 0 -31 1 -37 1 -7 0
-26 0 -43 0 -38 -1 -61 -1 -82 -1 -10 0 -29 0 -43 -1 -14 0 -32 0 -40 0 -8 1
-26 1 -40 0 -14 0 -31 0 -37 0 -23 2 -38 2 -103 2 -36 -1 -72 -1 -80 0 -8 0
-28 0 -45 0 -16 -1 -38 -1 -47 -1 -10 0 -29 0 -43 0 -14 0 -31 1 -37 1 -7 0
-26 0 -43 0 -38 -1 -61 -1 -82 -1 -10 0 -29 0 -43 -1 -14 0 -32 0 -40 0 -8 1
-26 1 -40 0 -14 0 -31 0 -37 0 -23 2 -38 2 -103 2 -36 -1 -72 -1 -80 0 -8 0
-28 0 -45 0 -16 -1 -38 -1 -47 -1 -10 0 -29 0 -43 0 -14 0 -31 1 -37 1 -7 0
-26 0 -43 0 -38 -1 -61 -1 -82 -1 -10 0 -29 0 -43 -1 -14 0 -32 0 -40 0 -8 1
-26 1 -40 0 -14 0 -31 0 -37 0 -7 1 -21 1 -30 1 -10 0 -43 1 -73 1 -30 1 -66
0 -80 -1 -34 -3 -52 -2 -75 3 -11 2 -34 1 -51 -3 -18 -4 -38 -4 -45 1 -7 4
-21 3 -30 -2 -12 -6 -20 -5 -24 1 -5 7 -11 8 -19 1 -7 -6 -18 -6 -25 -1 -8 4
-19 6 -25 4 -22 -8 -86 -10 -97 -3 -7 4 -25 3 -40 -1 -17 -5 -31 -5 -35 1 -3
6 -11 6 -17 1 -11 -8 -28 -8 -72 1 -11 2 -34 1 -51 -3 -18 -4 -38 -4 -45 1 -7
4 -21 3 -30 -2 -12 -6 -20 -5 -24 1 -5 7 -11 8 -19 1 -7 -6 -18 -6 -25 -1 -8
4 -19 6 -25 4 -22 -8 -86 -10 -97 -3 -7 4 -25 3 -40 -1 -17 -5 -31 -5 -35 1
-3 6 -11 6 -17 1 -11 -8 -28 -8 -72 1 -11 2 -34 1 -51 -3 -18 -4 -38 -4 -45 1
-7 4 -21 3 -30 -2 -12 -6 -20 -5 -24 1 -5 7 -11 8 -19 1 -7 -6 -18 -6 -25 -1
-8 4 -19 6 -25 4 -22 -8 -86 -10 -97 -3 -7 4 -25 3 -40 -1 -17 -5 -31 -5 -35
1 -3 6 -11 6 -17 1 -11 -8 -28 -8 -72 1 -11 2 -34 1 -51 -3 -18 -4 -38 -4 -45
1 -7 4 -21 3 -30 -2 -12 -6 -20 -5 -24 1 -5 7 -11 8 -19 1 -7 -6 -18 -6 -25
-1 -8 4 -19 6 -25 4 -22 -8 -86 -10 -97 -3 -7 4 -25 3 -40 -1 -17 -5 -31 -5
-35 1 -3 6 -11 6 -17 1 -11 -8 -28 -8 -72 1 -11 2 -34 1 -51 -3 -18 -4 -38 -4
-45 1 -7 4 -21 3 -30 -2 -12 -6 -20 -5 -24 1 -5 7 -11 8 -19 1 -7 -6 -18 -6
-25 -1 -8 4 -19 6 -25 4 -22 -8 -86 -10 -97 -3 -7 4 -25 3 -40 -1 -17 -5 -31
-5 -35 1 -3 6 -11 6 -17 1 -12 -8 -30 -8 -72 1 -11 3 -28 0 -37 -4 -10 -6 -19
-5 -23 1 -4 6 -13 7 -23 2 -16 -8 -33 -8 -77 1 -11 2 -34 1 -51 -3 -18 -4 -38
-4 -45 1 -7 4 -21 3 -30 -2 -12 -6 -20 -5 -24 1 -5 7 -11 8 -19 1 -7 -6 -18
-6 -25 -1 -8 4 -19 6 -25 4 -22 -8 -86 -10 -97 -3 -7 4 -25 3 -40 -1 -17 -5
-31 -5 -35 1 -3 6 -11 6 -17 1 -11 -8 -28 -8 -72 1 -11 2 -34 1 -51 -3 -18 -4
-38 -4 -45 1 -7 4 -21 3 -30 -2 -12 -6 -20 -5 -24 1 -5 7 -11 8 -19 1 -7 -6
-18 -6 -25 -1 -8 4 -19 6 -25 4 -22 -8 -86 -10 -97 -3 -7 4 -25 3 -40 -1 -17
-5 -31 -5 -35 1 -3 6 -11 6 -17 1 -11 -8 -28 -8 -72 1 -11 2 -34 1 -51 -3 -18
-4 -38 -4 -45 1 -7 4 -21 3 -30 -2 -12 -6 -20 -5 -24 1 -5 7 -11 8 -19 1 -7
-6 -18 -6 -25 -1 -8 4 -19 6 -25 4 -22 -8 -86 -10 -97 -3 -7 4 -25 3 -40 -1
-17 -5 -31 -5 -35 1 -3 6 -11 6 -17 1 -11 -8 -28 -8 -72 1 -11 2 -34 1 -51 -3
-18 -4 -38 -4 -45 1 -7 4 -21 3 -30 -2 -12 -6 -20 -5 -24 1 -5 7 -11 8 -19 1
-7 -6 -18 -6 -25 -1 -8 4 -19 6 -25 4 -22 -8 -86 -10 -97 -3 -7 4 -25 3 -40
-1 -17 -5 -31 -5 -35 1 -3 6 -11 6 -17 1 -11 -8 -28 -8 -72 1 -11 2 -34 1 -51
-3 -18 -4 -38 -4 -45 1 -7 4 -21 3 -30 -2 -12 -6 -20 -5 -24 1 -5 7 -11 8 -19
1 -7 -6 -18 -6 -25 -1 -8 4 -19 6 -25 4 -22 -8 -86 -10 -97 -3 -7 4 -25 3 -40
-1 -17 -5 -31 -5 -35 1 -3 6 -11 6 -17 1 -12 -8 -32 -8 -72 1 -11 2 -26 2 -32
0z"/>
<path d="M17 5559 c-16 -9 -17 -58 -17 -804 l0 -795 3845 0 3845 0 -10 26 c-6
14 -7 23 -2 21 4 -3 7 19 7 49 0 30 -3 54 -7 54 -4 0 -3 11 2 25 6 15 6 26 0
30 -7 4 -6 13 0 25 7 13 7 21 0 25 -7 5 -8 11 -1 19 6 7 6 17 1 26 -5 8 -6 18
-3 24 9 14 9 66 1 66 -4 0 -3 11 2 25 6 15 6 26 0 30 -7 4 -6 13 0 25 7 13 7
21 0 25 -7 5 -8 11 -1 19 6 7 6 17 1 26 -5 8 -6 18 -3 23 9 15 9 166 1 160 -5
-2 -4 7 2 21 6 18 6 26 -1 26 -6 0 -7 4 -4 10 9 15 12 90 3 90 -4 0 -3 11 2
25 6 15 6 26 0 30 -7 4 -6 13 0 25 7 13 7 21 0 25 -7 5 -8 11 -1 19 6 7 6 17
1 26 -5 8 -6 18 -3 23 9 15 9 166 1 160 -5 -2 -4 7 2 21 6 18 6 26 -1 26 -6 0
-7 4 -4 10 9 15 12 90 3 90 -4 0 -3 11 2 25 6 15 6 26 0 30 -7 4 -6 13 0 25 6
12 7 21 0 25 -6 4 -6 15 0 30 6 16 6 25 0 25 -6 0 -6 9 -1 23 9 24 -4 72 -17
63 -4 -2 -14 -1 -22 4 -7 4 -24 4 -36 0 -15 -6 -26 -5 -30 1 -3 6 -10 6 -17 1
-7 -5 -21 -6 -32 -2 -11 4 -30 4 -42 -1 -14 -5 -23 -5 -23 1 0 6 -9 6 -23 1
-13 -5 -29 -6 -36 -2 -7 5 -30 5 -51 1 -21 -4 -45 -3 -54 2 -10 5 -24 5 -36
-2 -11 -6 -26 -7 -33 -3 -16 10 -37 10 -64 1 -13 -4 -23 -4 -23 1 0 5 -15 5
-34 1 -19 -4 -40 -4 -46 0 -7 4 -25 4 -40 0 -15 -4 -34 -3 -43 2 -11 5 -24 5
-37 -2 -11 -6 -26 -7 -33 -3 -16 10 -37 10 -64 1 -13 -4 -23 -3 -23 2 0 6 -9
6 -23 1 -13 -5 -29 -6 -36 -2 -7 5 -30 5 -51 1 -21 -4 -45 -3 -54 2 -10 5 -24
5 -36 -2 -11 -6 -26 -7 -33 -3 -16 10 -37 10 -64 1 -13 -4 -23 -4 -23 1 0 5
-15 5 -34 1 -18 -4 -41 -3 -50 2 -10 5 -23 5 -36 -2 -11 -6 -26 -7 -33 -3 -16
10 -37 10 -64 1 -13 -4 -23 -4 -23 1 0 5 -15 5 -34 1 -18 -4 -41 -3 -50 2 -10
5 -23 5 -36 -2 -11 -6 -26 -7 -33 -3 -16 10 -37 10 -64 1 -13 -4 -23 -4 -23 1
0 5 -15 5 -34 1 -18 -4 -41 -3 -50 2 -10 5 -23 5 -37 -2 -14 -8 -24 -8 -32 -1
-8 6 -18 6 -27 1 -9 -5 -19 -5 -27 1 -8 7 -19 7 -33 -1 -16 -8 -25 -8 -35 0
-9 8 -15 8 -20 0 -4 -7 -12 -7 -26 0 -14 8 -19 7 -19 -1 0 -9 -3 -9 -14 0 -10
8 -16 9 -21 1 -4 -7 -12 -7 -26 0 -14 8 -19 7 -19 -1 0 -9 -3 -9 -14 0 -10 8
-16 9 -21 1 -4 -7 -12 -7 -26 0 -14 8 -19 7 -19 -1 0 -9 -3 -9 -14 0 -10 8
-16 9 -21 1 -4 -7 -12 -7 -26 0 -13 8 -25 7 -39 0 -11 -6 -26 -7 -33 -3 -16
10 -37 10 -64 1 -13 -4 -23 -4 -23 1 0 5 -15 5 -34 1 -18 -4 -41 -3 -50 2 -10
5 -23 5 -36 -2 -11 -6 -26 -7 -33 -3 -16 10 -37 10 -64 1 -13 -4 -23 -4 -23 1
0 5 -15 5 -34 1 -18 -4 -41 -3 -50 2 -10 5 -23 5 -37 -2 -14 -8 -24 -8 -32 -1
-8 6 -18 6 -27 1 -9 -5 -19 -5 -27 1 -8 7 -19 7 -33 -1 -16 -8 -25 -8 -35 0
-9 8 -15 8 -20 0 -4 -7 -12 -7 -26 0 -14 8 -19 7 -19 -1 0 -9 -3 -9 -14 0 -10
8 -16 9 -21 1 -4 -7 -12 -7 -26 0 -14 8 -19 7 -19 -1 0 -9 -3 -9 -14 0 -10 8
-16 9 -21 1 -4 -7 -12 -7 -26 0 -14 8 -19 7 -19 -1 0 -9 -3 -9 -14 0 -10 8
-16 9 -21 1 -4 -7 -12 -7 -26 0 -13 8 -25 7 -39 0 -11 -6 -26 -7 -33 -3 -16
10 -37 10 -64 1 -13 -4 -23 -4 -23 1 0 5 -15 5 -34 1 -18 -4 -41 -3 -50 2 -10
5 -23 5 -36 -2 -11 -6 -26 -7 -33 -3 -16 10 -37 10 -64 1 -13 -4 -23 -4 -23 1
0 5 -15 5 -34 1 -18 -4 -41 -3 -50 2 -10 5 -23 5 -37 -2 -14 -8 -24 -8 -32 -1
-8 6 -18 6 -27 1 -9 -5 -19 -5 -26 1 -6 5 -20 6 -30 2 -23 -9 -65 -9 -88 0 -9
4 -26 2 -37 -3 -11 -6 -25 -7 -32 -3 -16 10 -37 10 -64 1 -13 -4 -23 -3 -23 2
0 6 -9 6 -23 1 -13 -5 -29 -6 -36 -2 -7 5 -30 5 -51 1 -21 -4 -45 -3 -54 2
-10 5 -24 5 -36 -2 -11 -6 -26 -7 -33 -3 -16 10 -37 10 -64 1 -13 -4 -23 -4
-23 1 0 5 -15 5 -34 1 -19 -4 -40 -4 -46 0 -7 4 -25 4 -40 0 -15 -4 -34 -3
-43 2 -11 5 -24 5 -37 -2 -11 -6 -26 -7 -33 -3 -16 10 -37 10 -64 1 -13 -4
-23 -3 -23 2 0 6 -9 6 -23 1 -13 -5 -29 -6 -36 -2 -7 5 -30 5 -51 1 -21 -4
-45 -3 -54 2 -10 5 -24 5 -36 -2 -11 -6 -26 -7 -33 -3 -16 10 -37 10 -64 1
-13 -4 -23 -4 -23 1 0 5 -15 5 -34 1 -18 -4 -41 -3 -50 2 -10 5 -23 5 -36 -2
-11 -6 -26 -7 -33 -3 -16 10 -37 10 -64 1 -13 -4 -23 -4 -23 1 0 5 -15 5 -34
1 -18 -4 -41 -3 -50 2 -10 5 -23 5 -36 -2 -11 -6 -26 -7 -33 -3 -16 10 -37 10
-64 1 -13 -4 -23 -4 -23 1 0 5 -15 5 -34 1 -18 -4 -41 -3 -50 2 -10 5 -23 5
-37 -2 -14 -8 -24 -8 -32 -1 -8 6 -18 6 -27 1 -9 -5 -19 -5 -27 1 -8 7 -19 7
-33 -1 -16 -8 -25 -8 -35 0 -9 8 -15 8 -20 0 -4 -7 -12 -7 -26 0 -14 8 -19 7
-19 -1 0 -9 -3 -9 -14 0 -10 8 -16 9 -21 1 -4 -7 -12 -7 -26 0 -14 8 -19 7
-19 -1 0 -9 -3 -9 -14 0 -10 8 -16 9 -21 1 -4 -7 -12 -7 -26 0 -14 8 -19 7
-19 -1 0 -9 -3 -9 -14 0 -10 8 -16 9 -21 1 -4 -7 -12 -7 -26 0 -13 8 -25 7
-39 0 -11 -6 -26 -7 -33 -3 -16 10 -37 10 -64 1 -13 -4 -23 -4 -23 1 0 5 -15
5 -34 1 -18 -4 -41 -3 -50 2 -10 5 -23 5 -36 -2 -11 -6 -26 -7 -33 -3 -16 10
-37 10 -64 1 -13 -4 -23 -4 -23 1 0 5 -15 5 -34 1 -18 -4 -41 -3 -50 2 -10 5
-23 5 -37 -2 -14 -8 -24 -8 -32 -1 -8 6 -18 6 -27 1 -9 -5 -19 -5 -27 1 -8 7
-19 7 -33 -1 -16 -8 -25 -8 -35 0 -9 8 -15 8 -20 0 -4 -7 -12 -7 -26 0 -14 8
-19 7 -19 -1 0 -9 -3 -9 -14 0 -10 8 -16 9 -21 1 -4 -7 -12 -7 -26 0 -14 8
-19 7 -19 -1 0 -9 -3 -9 -14 0 -10 8 -16 9 -21 1 -4 -7 -12 -7 -26 0 -14 8
-19 7 -19 -1 0 -9 -3 -9 -14 0 -10 8 -16 9 -21 1 -4 -7 -12 -7 -26 0 -13 8
-25 7 -39 0 -11 -6 -26 -7 -33 -3 -16 10 -37 10 -64 1 -13 -4 -23 -4 -23 1 0
5 -15 5 -34 1 -18 -4 -41 -3 -50 2 -10 5 -23 5 -36 -2 -11 -6 -26 -7 -33 -3
-16 10 -37 10 -64 1 -13 -4 -23 -4 -23 1 0 5 -15 5 -34 1 -18 -4 -41 -3 -50 2
-10 5 -24 5 -37 -3 -15 -7 -24 -8 -32 0 -6 6 -16 7 -28 1 -11 -7 -20 -7 -24 0
-8 12 -15 12 -38 -1z"/>
</g>
</svg>
